<?xml version="1.0" standalone="no"?>
<!DOCTYPE svg PUBLIC "-//W3C//DTD SVG 20010904//EN"
 "http://www.w3.org/TR/2001/REC-SVG-20010904/DTD/svg10.dtd">
<svg version="1.0" xmlns="http://www.w3.org/2000/svg"
 width="44" height="48" viewBox="0 0 1080.000000 1080.000000"
 preserveAspectRatio="xMidYMid meet">

<g transform="translate(0.000000,1080.000000) scale(0.100000,-0.100000)"
fill="#000000" stroke="none">
<path d="M2335 7530 c-11 -4 -31 -20 -45 -35 l-25 -27 0 -1524 0 -1524 33 -32
32 -33 535 -3 534 -3 3 -509 3 -510 33 -32 32 -33 2505 0 2505 0 32 33 33 32
0 1605 0 1605 -33 32 -32 33 -680 3 -679 2 -3 430 -3 430 -33 32 -32 33 -2348
2 c-1291 1 -2356 -2 -2367 -7z m4675 -510 l0 -410 -1770 -2 -1770 -3 -32 -33
-33 -32 -3 -1040 -2 -1040 -515 0 -515 0 0 1485 0 1485 2320 0 2320 0 0 -410z
m1430 -2085 l0 -1565 -2465 0 -2465 0 0 1565 0 1565 2465 0 2465 0 0 -1565z"/>
<path d="M4420 5605 c-72 -21 -125 -53 -182 -112 -162 -167 -154 -421 18 -583
85 -79 149 -104 269 -104 120 0 184 25 268 104 182 170 182 430 0 600 -100 94
-244 131 -373 95z m199 -112 c66 -21 134 -81 169 -147 23 -44 27 -63 27 -136
0 -73 -4 -92 -27 -136 -51 -98 -157 -164 -263 -164 -106 0 -212 66 -263 164
-23 44 -27 63 -27 136 0 70 4 93 24 130 72 139 216 200 360 153z"/>
<path d="M6442 5367 c-28 -30 -28 -58 1 -85 l23 -22 795 0 796 0 21 23 c28 30
28 58 -1 85 l-23 22 -795 0 -796 0 -21 -23z"/>
<path d="M4880 4837 c-51 -75 -157 -178 -219 -211 -41 -22 -72 -30 -127 -34
-66 -4 -79 -2 -139 26 -93 44 -182 132 -262 261 -1 2 -27 -15 -58 -39 -196
-151 -329 -498 -360 -943 l-7 -97 538 5 c297 3 657 8 801 11 l262 6 7 66 c25
241 -67 555 -242 817 -54 81 -140 185 -152 185 -4 0 -23 -24 -42 -53z m-583
-291 c128 -79 268 -86 401 -20 54 26 98 59 154 114 l79 78 23 -32 c153 -203
256 -484 256 -697 l0 -69 -318 0 c-175 0 -488 -3 -694 -7 l-376 -6 5 49 c29
303 123 588 239 722 l37 44 76 -75 c42 -41 95 -86 118 -101z"/>
<path d="M6442 4757 c-28 -30 -28 -58 1 -85 l23 -22 795 0 796 0 21 23 c28 30
28 58 -1 85 l-23 22 -795 0 -796 0 -21 -23z"/>
<path d="M6442 4157 c-28 -30 -28 -58 1 -85 l23 -22 795 0 796 0 21 23 c28 30
28 58 -1 85 l-23 22 -795 0 -796 0 -21 -23z"/>
</g>
</svg>
