<svg width="48" height="44" viewBox="0 0 48 44" fill="none" xmlns="http://www.w3.org/2000/svg">
    <path d="M44.0001 14.0014H43.4445L36.5743 2.00397C36.043 1.07631 35.1855 0.41228 34.1563 0.136843C33.7732 0.0350302 33.3842 -0.0108134 32.9993 0.00212413C32.3537 0.0237804 31.7196 0.20678 31.1445 0.540155L1.98248 17.517C0.707666 18.2597 -0.00624015 19.6131 4.11005e-05 21.0011C0.00313485 21.6715 0.175729 22.3509 0.531322 22.9717L6.00004 32.5226V40.0003C6.00004 42.2062 7.79498 44.0001 10.0001 44.0001H44.0001C46.2052 44.0001 48.0001 42.2063 48.0001 40.0003V18.0013C48 15.7953 46.2052 14.0014 44.0001 14.0014ZM6.00004 18.0001V28.4988L2.2657 21.9766C1.71885 21.0205 2.04304 19.7949 2.99029 19.2441L6.0546 17.4602C6.03023 17.6385 6.00004 17.8152 6.00004 18.0001ZM32.1524 2.26862C32.6055 2.00303 33.1329 1.93169 33.6388 2.06847C34.1486 2.20516 34.5743 2.53525 34.84 2.99809L41.1409 14.0014H11.9982L32.1524 2.26862ZM46.0001 40C46.0001 41.1025 45.1035 42 44.0001 42H10.0001C8.89654 42 8.0001 41.1025 8.0001 40V18.0001C8.0001 16.8976 8.89663 16.0001 10.0001 16.0001H44.0001C45.1036 16.0001 46.0001 16.8976 46.0001 18.0001V40Z" fill="currentcolor"></path>
    <path d="M43 32H31C30.4473 32 30 32.4473 30 33.0001C30 33.5528 30.4473 34.0001 31 34.0001H43C43.5528 34.0001 44.0001 33.5528 44.0001 33.0001C44.0001 32.4473 43.5528 32 43 32Z" fill="currentcolor"></path>
    <path d="M43.0001 26H27C26.4473 26 26 26.4473 26 27.0001C26 27.5528 26.4473 28.0001 27 28.0001H43.0001C43.5528 28.0001 44.0001 27.5528 44.0001 27.0001C44.0001 26.4473 43.5528 26 43.0001 26Z" fill="currentcolor"></path>
    <path d="M18 30.0001C20.2051 30.0001 22.0001 28.2062 22.0001 26C22.0001 23.7939 20.2051 22 18 22C15.7949 22 14 23.7939 14 26C14 28.2062 15.795 30.0001 18 30.0001ZM18 24.0001C19.1036 24.0001 20 24.8975 20 26C20 27.1025 19.1035 28 18 28C16.8965 28 16.0001 27.1025 16.0001 26C16.0001 24.8974 16.8966 24.0001 18 24.0001Z" fill="currentcolor"></path>
    <path d="M23.9747 32.4737C22.5762 31.8017 20.4062 31 18 31C15.5937 31 13.4237 31.8017 12.0254 32.4737C10.7754 33.0752 10 34.2754 10 35.6055V36.0625C10 37.1309 10.8965 38 12 38H24C25.1035 38 25.9999 37.1309 25.9999 36.0625V35.6055C26 34.2754 25.2246 33.0752 23.9747 32.4737ZM24 36.0001L12 36.0625V35.6055C12 35.0507 12.3418 34.541 12.8926 34.2764C14.1035 33.6944 15.9707 33 18 33C20.0293 33 21.8965 33.6943 23.1074 34.2764C23.6582 34.541 24 35.0507 24 35.6055V36.0001Z" fill="currentcolor"></path>
</svg>