<svg xmlns="http://www.w3.org/2000/svg" xmlns:xlink="http://www.w3.org/1999/xlink" width="1080" zoomAndPan="magnify" viewBox="0 0 810 809.999993" height="1080" preserveAspectRatio="xMidYMid meet" version="1.0"><defs><clipPath id="7ad5a57fe7"><path d="M 243.074219 290.105469 L 566.945312 290.105469 L 566.945312 519.605469 L 243.074219 519.605469 Z M 243.074219 290.105469 " clip-rule="nonzero"/></clipPath></defs><rect x="-81" width="972" fill="#ffffff" y="-80.999999" height="971.999992" fill-opacity="1"/><rect x="-81" width="972" fill="#ffffff" y="-80.999999" height="971.999992" fill-opacity="1"/><g clip-path="url(#7ad5a57fe7)"><path fill="#242e6c" d="M 556.496094 502.503906 C 532.199219 480.320312 478.164062 431.898438 440.558594 404.875 C 478.121094 377.851562 532.1875 329.398438 556.496094 307.207031 Z M 261.558594 509.167969 C 297.542969 475.886719 346.347656 433.285156 377.539062 411.089844 C 389.539062 419.027344 399.28125 423.988281 404.960938 424.050781 C 410.132812 424.050781 419.726562 419.09375 431.621094 411.113281 C 461.765625 432.84375 510.046875 474.308594 548.304688 509.167969 Z M 253.519531 307.339844 C 277.527344 329.59375 330.710938 377.882812 368.511719 404.855469 C 330.710938 431.824219 277.527344 480.117188 253.519531 502.371094 Z M 548.304688 300.542969 C 493.726562 350.28125 418.003906 413.621094 404.960938 413.617188 C 391.917969 413.613281 312.417969 347.585938 261.558594 300.542969 Z M 561.722656 290.105469 L 248.292969 290.105469 C 246.582031 290.101562 243.058594 291.515625 243.074219 295.324219 L 243.074219 514.386719 C 243.058594 516.53125 244.867188 519.589844 248.292969 519.601562 L 561.722656 519.601562 C 565.957031 519.722656 566.976562 516.761719 566.945312 514.386719 L 566.945312 295.324219 C 566.976562 293.816406 566.089844 290.066406 561.722656 290.105469 " fill-opacity="1" fill-rule="nonzero"/></g></svg>