<svg xmlns="http://www.w3.org/2000/svg" xmlns:xlink="http://www.w3.org/1999/xlink" width="66" zoomAndPan="magnify" viewBox="0 0 49.5 50.249999" height="67" preserveAspectRatio="xMidYMid meet" version="1.0"><defs><clipPath id="09c86553e3"><path d="M 5.078125 30 L 20 30 L 20 44.675781 L 5.078125 44.675781 Z M 5.078125 30 " clip-rule="nonzero"/></clipPath><clipPath id="7e2a74a2ce"><path d="M 14 5.113281 L 44.417969 5.113281 L 44.417969 36 L 14 36 Z M 14 5.113281 " clip-rule="nonzero"/></clipPath></defs><path fill="#d9c65f" d="M 21.628906 30.589844 L 19.164062 28.125 L 14.160156 33.128906 L 16.625 35.59375 Z M 21.628906 30.589844 " fill-opacity="1" fill-rule="nonzero"/><g clip-path="url(#09c86553e3)"><path fill="#d9c65f" d="M 6.257812 38.234375 C 5.167969 39.324219 5.167969 41.09375 6.257812 42.183594 L 7.570312 43.496094 C 8.664062 44.585938 10.429688 44.585938 11.515625 43.496094 L 18.566406 36.445312 C 19.65625 35.355469 19.65625 33.589844 18.566406 32.5 L 17.25 31.1875 C 16.164062 30.097656 14.394531 30.097656 13.304688 31.1875 Z M 6.257812 38.234375 " fill-opacity="1" fill-rule="nonzero"/></g><g clip-path="url(#7e2a74a2ce)"><path fill="#d9c65f" d="M 29.671875 5.09375 C 37.949219 5.09375 44.660156 11.804688 44.660156 20.082031 C 44.660156 28.359375 37.949219 35.070312 29.671875 35.070312 C 21.390625 35.070312 14.683594 28.359375 14.683594 20.082031 C 14.683594 11.804688 21.390625 5.09375 29.671875 5.09375 Z M 29.671875 32.296875 C 36.417969 32.296875 41.886719 26.832031 41.886719 20.082031 C 41.886719 13.332031 36.417969 7.867188 29.671875 7.867188 C 22.921875 7.867188 17.453125 13.332031 17.453125 20.082031 C 17.453125 26.832031 22.921875 32.296875 29.671875 32.296875 Z M 29.671875 32.296875 " fill-opacity="1" fill-rule="nonzero"/></g><path fill="#d9c65f" d="M 26.597656 27.5 C 32.578125 27.5 37.425781 22.652344 37.425781 16.671875 C 37.425781 16.515625 37.410156 16.359375 37.402344 16.199219 C 38.191406 17.476562 38.652344 18.976562 38.652344 20.585938 C 38.652344 25.210938 34.90625 28.957031 30.285156 28.957031 C 28.496094 28.957031 26.847656 28.394531 25.488281 27.445312 C 25.851562 27.484375 26.222656 27.5 26.597656 27.5 Z M 26.597656 27.5 " fill-opacity="1" fill-rule="nonzero"/></svg>