<svg xmlns="http://www.w3.org/2000/svg" xmlns:xlink="http://www.w3.org/1999/xlink" width="484" zoomAndPan="magnify" viewBox="0 0 363 378.749986" height="505" preserveAspectRatio="xMidYMid meet" version="1.0"><defs><clipPath id="63fb9fbfc7"><path d="M 15.488281 11 L 163.890625 11 L 163.890625 145.140625 L 15.488281 145.140625 Z M 15.488281 11 " clip-rule="nonzero"/></clipPath><clipPath id="a678501fc3"><path d="M 36.867188 53.507812 L 54.105469 53.507812 L 54.105469 70.746094 L 36.867188 70.746094 Z M 36.867188 53.507812 " clip-rule="nonzero"/></clipPath><clipPath id="663a7dc249"><path d="M 80.945312 53.507812 L 98.183594 53.507812 L 98.183594 70.746094 L 80.945312 70.746094 Z M 80.945312 53.507812 " clip-rule="nonzero"/></clipPath><clipPath id="a8b641040e"><path d="M 125.023438 53.507812 L 142.265625 53.507812 L 142.265625 70.746094 L 125.023438 70.746094 Z M 125.023438 53.507812 " clip-rule="nonzero"/></clipPath></defs><g clip-path="url(#63fb9fbfc7)"><path fill="#d9c65f" d="M 124.464844 145.269531 C 123.628906 145.308594 122.921875 145.023438 122.34375 144.417969 L 97.933594 120.003906 L 38.9375 120.003906 C 38.167969 120.003906 37.402344 119.960938 36.640625 119.886719 C 35.875 119.808594 35.117188 119.695312 34.367188 119.542969 C 33.613281 119.394531 32.871094 119.207031 32.136719 118.980469 C 31.402344 118.757812 30.679688 118.5 29.972656 118.203125 C 29.261719 117.910156 28.570312 117.582031 27.894531 117.21875 C 27.214844 116.855469 26.558594 116.460938 25.921875 116.035156 C 25.285156 115.605469 24.667969 115.148438 24.074219 114.664062 C 23.480469 114.175781 22.914062 113.660156 22.371094 113.117188 C 21.828125 112.574219 21.3125 112.007812 20.828125 111.414062 C 20.339844 110.820312 19.882812 110.203125 19.457031 109.566406 C 19.027344 108.925781 18.632812 108.269531 18.273438 107.59375 C 17.910156 106.917969 17.582031 106.222656 17.285156 105.515625 C 16.992188 104.804688 16.734375 104.082031 16.507812 103.347656 C 16.285156 102.613281 16.097656 101.871094 15.945312 101.117188 C 15.796875 100.367188 15.683594 99.609375 15.605469 98.84375 C 15.527344 98.078125 15.488281 97.3125 15.488281 96.546875 L 15.488281 34.460938 C 15.492188 33.695312 15.535156 32.929688 15.613281 32.167969 C 15.695312 31.40625 15.808594 30.648438 15.964844 29.894531 C 16.117188 29.144531 16.304688 28.402344 16.53125 27.667969 C 16.757812 26.9375 17.019531 26.214844 17.3125 25.507812 C 17.609375 24.800781 17.9375 24.109375 18.300781 23.433594 C 18.664062 22.757812 19.058594 22.101562 19.488281 21.464844 C 19.914062 20.828125 20.371094 20.214844 20.859375 19.621094 C 21.34375 19.03125 21.859375 18.460938 22.402344 17.921875 C 22.941406 17.378906 23.511719 16.863281 24.101562 16.375 C 24.695312 15.890625 25.308594 15.433594 25.945312 15.003906 C 26.582031 14.578125 27.238281 14.183594 27.914062 13.820312 C 28.589844 13.457031 29.28125 13.128906 29.988281 12.832031 C 30.695312 12.535156 31.414062 12.273438 32.148438 12.050781 C 32.878906 11.824219 33.621094 11.632812 34.371094 11.480469 C 35.125 11.328125 35.878906 11.210938 36.644531 11.132812 C 37.40625 11.050781 38.167969 11.007812 38.9375 11.003906 L 140.070312 11.003906 C 140.835938 11.003906 141.605469 11.042969 142.371094 11.121094 C 143.132812 11.195312 143.894531 11.308594 144.648438 11.460938 C 145.398438 11.613281 146.144531 11.796875 146.878906 12.023438 C 147.617188 12.246094 148.339844 12.503906 149.046875 12.800781 C 149.757812 13.09375 150.453125 13.421875 151.128906 13.785156 C 151.808594 14.144531 152.464844 14.539062 153.105469 14.964844 C 153.746094 15.394531 154.363281 15.851562 154.957031 16.335938 C 155.550781 16.824219 156.121094 17.339844 156.664062 17.882812 C 157.210938 18.425781 157.726562 18.992188 158.214844 19.585938 C 158.703125 20.179688 159.160156 20.796875 159.589844 21.433594 C 160.019531 22.070312 160.414062 22.730469 160.78125 23.40625 C 161.144531 24.082031 161.472656 24.777344 161.769531 25.484375 C 162.066406 26.195312 162.328125 26.917969 162.554688 27.652344 C 162.78125 28.386719 162.96875 29.128906 163.121094 29.882812 C 163.273438 30.636719 163.390625 31.398438 163.46875 32.160156 C 163.546875 32.925781 163.589844 33.691406 163.59375 34.460938 L 163.59375 96.546875 C 163.59375 97.316406 163.554688 98.082031 163.480469 98.851562 C 163.402344 99.617188 163.289062 100.375 163.140625 101.128906 C 162.988281 101.886719 162.800781 102.632812 162.578125 103.367188 C 162.351562 104.105469 162.09375 104.828125 161.796875 105.539062 C 161.503906 106.25 161.171875 106.945312 160.808594 107.621094 C 160.445312 108.300781 160.050781 108.960938 159.621094 109.597656 C 159.195312 110.238281 158.734375 110.855469 158.246094 111.449219 C 157.757812 112.042969 157.238281 112.613281 156.695312 113.15625 C 156.148438 113.699219 155.578125 114.214844 154.984375 114.703125 C 154.386719 115.1875 153.769531 115.644531 153.128906 116.074219 C 152.488281 116.5 151.828125 116.894531 151.148438 117.253906 C 150.472656 117.617188 149.773438 117.941406 149.0625 118.234375 C 148.351562 118.53125 147.628906 118.785156 146.890625 119.007812 C 146.15625 119.230469 145.410156 119.414062 144.652344 119.5625 C 143.898438 119.710938 143.136719 119.824219 142.371094 119.898438 C 141.605469 119.96875 140.839844 120.007812 140.070312 120.003906 L 127.59375 120.003906 L 127.59375 142.292969 C 127.597656 142.917969 127.429688 143.492188 127.085938 144.011719 C 126.742188 144.535156 126.285156 144.914062 125.710938 145.160156 C 125.296875 145.21875 124.882812 145.257812 124.464844 145.269531 Z M 124.464844 145.269531 " fill-opacity="1" fill-rule="nonzero"/></g><g clip-path="url(#a678501fc3)"><path fill="#ffffff" d="M 54.105469 62.128906 C 54.105469 62.695312 54.050781 63.253906 53.9375 63.808594 C 53.828125 64.363281 53.664062 64.902344 53.449219 65.425781 C 53.230469 65.949219 52.964844 66.445312 52.652344 66.917969 C 52.335938 67.386719 51.980469 67.824219 51.582031 68.222656 C 51.179688 68.625 50.746094 68.980469 50.273438 69.296875 C 49.804688 69.609375 49.304688 69.875 48.785156 70.09375 C 48.261719 70.308594 47.722656 70.472656 47.167969 70.582031 C 46.609375 70.691406 46.050781 70.75 45.484375 70.75 C 44.917969 70.75 44.359375 70.691406 43.804688 70.582031 C 43.246094 70.472656 42.707031 70.308594 42.1875 70.09375 C 41.664062 69.875 41.164062 69.609375 40.695312 69.296875 C 40.226562 68.980469 39.789062 68.625 39.390625 68.222656 C 38.988281 67.824219 38.632812 67.386719 38.316406 66.917969 C 38.003906 66.445312 37.738281 65.949219 37.519531 65.425781 C 37.304688 64.902344 37.140625 64.363281 37.03125 63.808594 C 36.917969 63.253906 36.863281 62.695312 36.863281 62.128906 C 36.863281 61.5625 36.917969 61 37.03125 60.445312 C 37.140625 59.890625 37.304688 59.351562 37.519531 58.828125 C 37.738281 58.304688 38.003906 57.808594 38.316406 57.339844 C 38.632812 56.867188 38.988281 56.433594 39.390625 56.03125 C 39.789062 55.632812 40.226562 55.273438 40.695312 54.960938 C 41.164062 54.644531 41.664062 54.378906 42.1875 54.164062 C 42.707031 53.949219 43.246094 53.785156 43.804688 53.671875 C 44.359375 53.5625 44.917969 53.507812 45.484375 53.507812 C 46.050781 53.507812 46.609375 53.5625 47.167969 53.671875 C 47.722656 53.785156 48.261719 53.949219 48.785156 54.164062 C 49.304688 54.378906 49.804688 54.644531 50.273438 54.960938 C 50.746094 55.273438 51.179688 55.632812 51.582031 56.03125 C 51.980469 56.433594 52.335938 56.867188 52.652344 57.339844 C 52.964844 57.808594 53.230469 58.304688 53.449219 58.828125 C 53.664062 59.351562 53.828125 59.890625 53.9375 60.445312 C 54.050781 61 54.105469 61.5625 54.105469 62.128906 Z M 54.105469 62.128906 " fill-opacity="1" fill-rule="nonzero"/></g><g clip-path="url(#663a7dc249)"><path fill="#ffffff" d="M 98.183594 62.128906 C 98.183594 62.695312 98.128906 63.253906 98.019531 63.808594 C 97.910156 64.363281 97.746094 64.902344 97.527344 65.425781 C 97.3125 65.949219 97.046875 66.445312 96.730469 66.917969 C 96.417969 67.386719 96.058594 67.824219 95.660156 68.222656 C 95.261719 68.625 94.824219 68.980469 94.355469 69.296875 C 93.882812 69.609375 93.386719 69.875 92.863281 70.09375 C 92.339844 70.308594 91.800781 70.472656 91.246094 70.582031 C 90.691406 70.691406 90.128906 70.75 89.566406 70.75 C 89 70.75 88.4375 70.691406 87.882812 70.582031 C 87.328125 70.472656 86.789062 70.308594 86.265625 70.09375 C 85.742188 69.875 85.246094 69.609375 84.773438 69.296875 C 84.304688 68.980469 83.871094 68.625 83.46875 68.222656 C 83.070312 67.824219 82.710938 67.386719 82.398438 66.917969 C 82.082031 66.445312 81.816406 65.949219 81.601562 65.425781 C 81.382812 64.902344 81.21875 64.363281 81.109375 63.808594 C 81 63.253906 80.945312 62.695312 80.945312 62.128906 C 80.945312 61.5625 81 61 81.109375 60.445312 C 81.21875 59.890625 81.382812 59.351562 81.601562 58.828125 C 81.816406 58.304688 82.082031 57.808594 82.398438 57.339844 C 82.710938 56.867188 83.070312 56.433594 83.46875 56.03125 C 83.871094 55.632812 84.304688 55.273438 84.773438 54.960938 C 85.246094 54.644531 85.742188 54.378906 86.265625 54.164062 C 86.789062 53.949219 87.328125 53.785156 87.882812 53.671875 C 88.4375 53.5625 89 53.507812 89.566406 53.507812 C 90.128906 53.507812 90.691406 53.5625 91.246094 53.671875 C 91.800781 53.785156 92.339844 53.949219 92.863281 54.164062 C 93.386719 54.378906 93.882812 54.644531 94.355469 54.960938 C 94.824219 55.273438 95.261719 55.632812 95.660156 56.03125 C 96.058594 56.433594 96.417969 56.867188 96.730469 57.339844 C 97.046875 57.808594 97.3125 58.304688 97.527344 58.828125 C 97.746094 59.351562 97.910156 59.890625 98.019531 60.445312 C 98.128906 61 98.183594 61.5625 98.183594 62.128906 Z M 98.183594 62.128906 " fill-opacity="1" fill-rule="nonzero"/></g><g clip-path="url(#a8b641040e)"><path fill="#ffffff" d="M 142.265625 62.128906 C 142.265625 62.695312 142.210938 63.253906 142.097656 63.808594 C 141.988281 64.363281 141.824219 64.902344 141.609375 65.425781 C 141.390625 65.949219 141.125 66.445312 140.8125 66.917969 C 140.496094 67.386719 140.140625 67.824219 139.738281 68.222656 C 139.339844 68.625 138.90625 68.980469 138.433594 69.296875 C 137.964844 69.609375 137.464844 69.875 136.945312 70.09375 C 136.421875 70.308594 135.882812 70.472656 135.328125 70.582031 C 134.769531 70.691406 134.210938 70.75 133.644531 70.75 C 133.078125 70.75 132.519531 70.691406 131.960938 70.582031 C 131.40625 70.472656 130.867188 70.308594 130.347656 70.09375 C 129.824219 69.875 129.324219 69.609375 128.855469 69.296875 C 128.382812 68.980469 127.949219 68.625 127.550781 68.222656 C 127.148438 67.824219 126.792969 67.386719 126.476562 66.917969 C 126.164062 66.445312 125.898438 65.949219 125.679688 65.425781 C 125.464844 64.902344 125.300781 64.363281 125.191406 63.808594 C 125.078125 63.253906 125.023438 62.695312 125.023438 62.128906 C 125.023438 61.5625 125.078125 61 125.191406 60.445312 C 125.300781 59.890625 125.464844 59.351562 125.679688 58.828125 C 125.898438 58.304688 126.164062 57.808594 126.476562 57.339844 C 126.792969 56.867188 127.148438 56.433594 127.550781 56.03125 C 127.949219 55.632812 128.382812 55.273438 128.855469 54.960938 C 129.324219 54.644531 129.824219 54.378906 130.347656 54.164062 C 130.867188 53.949219 131.40625 53.785156 131.960938 53.671875 C 132.519531 53.5625 133.078125 53.507812 133.644531 53.507812 C 134.210938 53.507812 134.769531 53.5625 135.328125 53.671875 C 135.882812 53.785156 136.421875 53.949219 136.945312 54.164062 C 137.464844 54.378906 137.964844 54.644531 138.433594 54.960938 C 138.90625 55.273438 139.339844 55.632812 139.738281 56.03125 C 140.140625 56.433594 140.496094 56.867188 140.8125 57.339844 C 141.125 57.808594 141.390625 58.304688 141.609375 58.828125 C 141.824219 59.351562 141.988281 59.890625 142.097656 60.445312 C 142.210938 61 142.265625 61.5625 142.265625 62.128906 Z M 142.265625 62.128906 " fill-opacity="1" fill-rule="nonzero"/></g></svg>