<svg xmlns="http://www.w3.org/2000/svg" xmlns:xlink="http://www.w3.org/1999/xlink" width="800" zoomAndPan="magnify" viewBox="0 0 810 809.999993" height="1080" preserveAspectRatio="xMidYMid meet" version="1.0"><defs><clipPath id="7f1a6fb0e6"><path d="M 285.285156 256.03125 L 524.535156 256.03125 L 524.535156 553.78125 L 285.285156 553.78125 Z M 285.285156 256.03125 " clip-rule="nonzero"/></clipPath></defs><g clip-path="url(#7f1a6fb0e6)"><path fill="#242e6c" d="M 524.335938 271.613281 C 524.339844 270.589844 524.242188 269.582031 524.042969 268.578125 C 523.847656 267.578125 523.554688 266.605469 523.164062 265.664062 C 522.777344 264.71875 522.300781 263.824219 521.734375 262.972656 C 521.167969 262.121094 520.527344 261.335938 519.808594 260.613281 C 519.085938 259.890625 518.304688 259.242188 517.457031 258.675781 C 516.609375 258.105469 515.714844 257.625 514.773438 257.230469 C 513.832031 256.839844 512.863281 256.542969 511.863281 256.339844 C 510.863281 256.136719 509.851562 256.035156 508.832031 256.03125 L 301.007812 256.03125 C 299.984375 256.03125 298.972656 256.132812 297.96875 256.332031 C 296.964844 256.53125 295.992188 256.824219 295.046875 257.21875 C 294.101562 257.609375 293.203125 258.089844 292.355469 258.65625 C 291.503906 259.226562 290.714844 259.871094 289.992188 260.59375 C 289.269531 261.316406 288.625 262.105469 288.054688 262.957031 C 287.488281 263.804688 287.007812 264.703125 286.617188 265.648438 C 286.226562 266.59375 285.929688 267.570312 285.730469 268.570312 C 285.53125 269.574219 285.429688 270.589844 285.429688 271.613281 L 285.429688 538.152344 C 285.429688 539.175781 285.527344 540.191406 285.726562 541.195312 C 285.925781 542.199219 286.21875 543.171875 286.609375 544.117188 C 287 545.0625 287.480469 545.964844 288.046875 546.8125 C 288.617188 547.664062 289.261719 548.453125 289.984375 549.175781 C 290.710938 549.898438 291.496094 550.546875 292.347656 551.113281 C 293.199219 551.683594 294.097656 552.164062 295.042969 552.554688 C 295.988281 552.945312 296.964844 553.238281 297.96875 553.4375 C 298.972656 553.636719 299.984375 553.734375 301.007812 553.734375 L 434.746094 553.734375 L 524.386719 467.542969 C 524.386719 402.199219 524.386719 336.875 524.386719 271.5625 Z M 318.621094 285.519531 L 359.082031 285.519531 C 359.382812 285.523438 359.679688 285.550781 359.972656 285.613281 C 360.269531 285.671875 360.554688 285.757812 360.832031 285.875 C 361.109375 285.992188 361.371094 286.132812 361.621094 286.300781 C 361.871094 286.464844 362.101562 286.65625 362.3125 286.867188 C 362.523438 287.082031 362.714844 287.3125 362.882812 287.5625 C 363.050781 287.8125 363.191406 288.074219 363.304688 288.351562 C 363.421875 288.628906 363.507812 288.914062 363.570312 289.207031 C 363.628906 289.503906 363.660156 289.800781 363.660156 290.101562 L 363.660156 327.101562 C 363.65625 327.402344 363.625 327.695312 363.566406 327.992188 C 363.503906 328.285156 363.414062 328.570312 363.300781 328.847656 C 363.183594 329.121094 363.042969 329.386719 362.875 329.632812 C 362.707031 329.882812 362.519531 330.113281 362.304688 330.324219 C 362.09375 330.535156 361.863281 330.726562 361.613281 330.894531 C 361.367188 331.0625 361.101562 331.203125 360.828125 331.320312 C 360.550781 331.433594 360.265625 331.523438 359.972656 331.585938 C 359.679688 331.644531 359.382812 331.675781 359.082031 331.679688 L 318.621094 331.679688 C 318.324219 331.675781 318.027344 331.644531 317.730469 331.585938 C 317.4375 331.523438 317.152344 331.433594 316.878906 331.320312 C 316.601562 331.203125 316.339844 331.0625 316.089844 330.894531 C 315.839844 330.726562 315.609375 330.535156 315.398438 330.324219 C 315.1875 330.113281 314.996094 329.882812 314.828125 329.632812 C 314.664062 329.386719 314.519531 329.121094 314.40625 328.847656 C 314.289062 328.570312 314.199219 328.285156 314.140625 327.992188 C 314.078125 327.695312 314.046875 327.402344 314.042969 327.101562 L 314.042969 290.101562 C 314.042969 289.800781 314.074219 289.5 314.132812 289.207031 C 314.191406 288.910156 314.277344 288.625 314.390625 288.347656 C 314.507812 288.070312 314.648438 287.804688 314.816406 287.554688 C 314.980469 287.304688 315.171875 287.074219 315.382812 286.863281 C 315.597656 286.648438 315.828125 286.460938 316.078125 286.292969 C 316.328125 286.125 316.59375 285.984375 316.871094 285.867188 C 317.148438 285.753906 317.433594 285.667969 317.730469 285.609375 C 318.023438 285.550781 318.320312 285.519531 318.621094 285.519531 Z M 491.898438 286.515625 C 495.796875 286.515625 495.871094 293.175781 491.898438 293.175781 L 380.597656 293.175781 C 376.597656 293.175781 376.695312 286.515625 380.597656 286.515625 Z M 449.476562 330.6875 C 453.375 330.6875 453.472656 324.023438 449.476562 324.023438 L 380.597656 324.023438 C 376.597656 324.023438 376.695312 330.6875 380.597656 330.6875 Z M 380.597656 305.269531 C 376.695312 305.269531 376.621094 311.933594 380.597656 311.933594 L 473.121094 311.933594 C 477.117188 311.933594 477.046875 305.269531 473.121094 305.269531 Z M 514.234375 266.183594 L 514.234375 462.601562 L 440.171875 462.601562 C 439.597656 462.601562 439.027344 462.65625 438.464844 462.769531 C 437.902344 462.878906 437.355469 463.046875 436.824219 463.265625 C 436.292969 463.484375 435.789062 463.753906 435.3125 464.074219 C 434.835938 464.394531 434.394531 464.757812 433.988281 465.164062 C 433.582031 465.566406 433.21875 466.011719 432.898438 466.488281 C 432.582031 466.964844 432.3125 467.46875 432.089844 468 C 431.871094 468.53125 431.707031 469.078125 431.59375 469.640625 C 431.480469 470.203125 431.425781 470.773438 431.425781 471.347656 L 431.425781 542.804688 L 295.582031 542.804688 L 295.582031 266.183594 Z M 514.234375 266.183594 " fill-opacity="1" fill-rule="nonzero"/></g></svg>