<svg xmlns="http://www.w3.org/2000/svg" xmlns:xlink="http://www.w3.org/1999/xlink" width="1080" zoomAndPan="magnify" viewBox="0 0 810 809.999993" height="1080" preserveAspectRatio="xMidYMid meet" version="1.0"><defs><clipPath id="7a64906683"><path d="M 274.832031 274 L 535.082031 274 L 535.082031 536 L 274.832031 536 Z M 274.832031 274 " clip-rule="nonzero"/></clipPath></defs><rect x="-81" width="972" fill="#ffffff" y="-80.999999" height="971.999992" fill-opacity="1"/><rect x="-81" width="972" fill="#ffffff" y="-80.999999" height="971.999992" fill-opacity="1"/><g clip-path="url(#7a64906683)"><path fill="#242e6c" d="M 276.238281 400.640625 L 403.550781 275.414062 C 404.492188 274.488281 405.742188 274.070312 406.964844 274.148438 C 408.777344 274.21875 410.574219 274.328125 412.363281 274.472656 L 412.53125 274.476562 C 412.648438 274.484375 412.761719 274.496094 412.878906 274.511719 C 427.402344 275.722656 441.261719 279.242188 454.089844 284.679688 C 469.234375 291.101562 482.945312 300.207031 494.613281 311.363281 C 519.601562 335.257812 533.195312 366.867188 534.898438 399.054688 C 536.59375 431.148438 526.476562 463.839844 504.054688 490.074219 C 498.722656 496.308594 492.957031 501.90625 486.851562 506.859375 C 462.484375 526.617188 432.703125 536.128906 403.0625 535.617188 C 373.421875 535.105469 343.914062 524.566406 320.089844 504.222656 C 314.023438 499.042969 308.324219 493.222656 303.082031 486.765625 C 293.648438 475.144531 286.1875 461.898438 281.308594 447.511719 C 276.660156 433.804688 274.351562 419.046875 274.910156 403.652344 C 274.953125 402.46875 275.453125 401.410156 276.238281 400.640625 Z M 416.34375 283.792969 C 415.785156 290.191406 414.96875 296.363281 413.894531 302.304688 C 467.945312 306.558594 510.476562 351.738281 510.476562 406.847656 C 510.476562 464.769531 463.5 511.726562 405.542969 511.726562 C 350.058594 511.726562 304.636719 468.683594 300.863281 414.1875 C 295.367188 414.984375 289.734375 415.511719 283.980469 415.78125 C 284.652344 425.808594 286.632812 435.484375 289.742188 444.65625 C 294.28125 458.042969 301.21875 470.359375 309.984375 481.15625 C 314.875 487.179688 320.203125 492.617188 325.875 497.460938 C 348.082031 516.429688 375.585938 526.25 403.199219 526.730469 C 430.816406 527.210938 458.554688 518.351562 481.234375 499.957031 C 486.925781 495.34375 492.304688 490.121094 497.289062 484.292969 C 518.171875 459.863281 527.585938 429.414062 526.007812 399.507812 C 524.417969 369.496094 511.753906 340.035156 488.476562 317.773438 C 477.59375 307.367188 464.792969 298.867188 450.632812 292.867188 C 439.890625 288.3125 428.378906 285.203125 416.34375 283.792969 Z M 283.734375 406.898438 C 318.433594 405.25 348.34375 393.507812 370.097656 371.808594 C 390.523438 351.4375 403.867188 322.179688 407.371094 284.128906 L 283.75 405.722656 C 283.742188 406.117188 283.738281 406.507812 283.734375 406.898438 Z M 283.734375 406.898438 " fill-opacity="1" fill-rule="nonzero"/></g></svg>